<?xml version="1.0" encoding="UTF-8" standalone="no"?>
<svg
   version="1.0"
   width="1024.000000pt"
   height="665.000000pt"
   viewBox="0 0 1024.000000 665.000000"
   preserveAspectRatio="xMidYMid meet"
   id="svg39"
   sodipodi:docname="logo-editted2.svg"
   inkscape:version="1.4.2 (f4327f4, 2025-05-13)"
   inkscape:export-filename="logo-editted2.svg"
   inkscape:export-xdpi="96"
   inkscape:export-ydpi="96"
   xmlns:inkscape="http://www.inkscape.org/namespaces/inkscape"
   xmlns:sodipodi="http://sodipodi.sourceforge.net/DTD/sodipodi-0.dtd"
   xmlns="http://www.w3.org/2000/svg"
   xmlns:svg="http://www.w3.org/2000/svg">
   <defs
      id="defs39">
      <linearGradient
         id="swatch178"
         inkscape:swatch="solid">
         <stop
            style="stop-color:#f04074;stop-opacity:0.63616556;"
            offset="0"
            id="stop178" />
      </linearGradient>
      <linearGradient
         id="swatch151"
         inkscape:swatch="solid">
         <stop
            style="stop-color:#ff0000;stop-opacity:1;"
            offset="0"
            id="stop151" />
      </linearGradient>
      <linearGradient
         id="swatch127"
         inkscape:swatch="solid">
         <stop
            style="stop-color:#41af18;stop-opacity:1;"
            offset="0"
            id="stop127" />
      </linearGradient>
      <filter
         inkscape:collect="always"
         style="color-interpolation-filters:sRGB"
         id="filter222"
         x="-0.14843958"
         y="-0.14843959"
         width="1.2968792"
         height="1.2968792">
         <feGaussianBlur
            inkscape:collect="always"
            stdDeviation="50.074693"
            id="feGaussianBlur222" />
      </filter>
      <filter
         inkscape:collect="always"
         style="color-interpolation-filters:sRGB"
         id="filter224"
         x="-0.14843958"
         y="-0.14843959"
         width="1.2968792"
         height="1.2968792">
         <feGaussianBlur
            inkscape:collect="always"
            stdDeviation="50.074693"
            id="feGaussianBlur224" />
      </filter>
   </defs>
   <sodipodi:namedview
      id="namedview39"
      pagecolor="#ffffff"
      bordercolor="#999999"
      borderopacity="1"
      inkscape:showpageshadow="2"
      inkscape:pageopacity="0"
      inkscape:pagecheckerboard="0"
      inkscape:deskcolor="#d1d1d1"
      inkscape:document-units="pt"
      inkscape:zoom="0.6435735"
      inkscape:cx="531.40783"
      inkscape:cy="460.70884"
      inkscape:window-width="1920"
      inkscape:window-height="1009"
      inkscape:window-x="1912"
      inkscape:window-y="-8"
      inkscape:window-maximized="1"
      inkscape:current-layer="svg39" />
   <g
      transform="translate(0.000000,665.000000) scale(0.100000,-0.100000)"
      fill="#000000"
      stroke="none"
      id="g39">
      <path
         d="M4740 6484 c-154 -10 -397 -56 -655 -124 -102 -27 -144 -44 -285 -122 -194 -106 -232 -130 -317 -206 -78 -68 -206 -224 -228 -275 -14 -35 -14 -37 3 -37 10 0 54 33 98 73 191 177 388 317 426 305 6 -2 -8 -16 -30 -31 -38 -27 -205 -201 -249 -261 -13 -16 -23 -44 -23 -60 0 -23 -14 -47 -49 -89 -57 -65 -67 -88 -51 -116 8 -17 5 -31 -15 -70 -28 -56 -24 -81 11 -81 34 0 30 -18 -18 -90 -45 -68 -44 -94 3 -96 26 0 27 -18 4 -44 -50 -55 -49 -118 1 -106 28 7 30 -3 8 -46 -25 -49 -8 -54 95 -24 201 57 582 110 880 121 83 3 149 9 157 16 24 20 34 82 34 222 0 151 8 184 56 229 56 52 61 52 482 56 431 4 456 1 524 -56 50 -42 58 -75 58 -231 0 -77 4 -151 10 -165 21 -55 48 -61 405 -86 83 -6 177 -15 210 -20 33 -5 119 -16 190 -25 75 -9 173 -29 232 -47 87 -26 105 -29 118 -18 16 13 16 24 0 63 -5 12 -3 17 8 17 8 0 20 7 28 16 10 13 8 24 -14 69 l-26 54 37 3 c51 4 52 25 3 97 -44 64 -49 81 -26 81 32 0 36 36 9 86 -22 41 -25 54 -16 77 13 35 6 56 -47 126 -24 32 -41 66 -41 81 0 44 -52 110 -171 219 -63 58 -125 115 -139 129 l-25 24 25 -7 c74 -21 256 -151 402 -286 53 -49 99 -89 102 -89 38 0 -82 175 -182 265 -88 80 -133 114 -217 165 -89 55 -301 152 -426 195 -93 33 -169 47 -569 106 -72 10 -686 20 -800 13z"
         id="path1" />
      <path
         d="M3261 5999 c-49 -30 -211 -194 -251 -254 -18 -27 -41 -59 -51 -70 -34 -39 -128 -236 -163 -342 -19 -60 -43 -148 -52 -198 -49 -265 -54 -334 -28 -359 22 -23 29 -21 79 25 51 47 58 68 75 209 31 268 141 530 341 811 63 88 99 154 99 178 0 26 -6 26 -49 0z"
         id="path2" />
      <path
         d="M6905 5990 c-4 -6 21 -48 54 -93 93 -126 259 -414 304 -527 30 -77 63 -248 71 -377 10 -135 31 -184 99 -219 62 -32 82 14 66 153 -45 400 -183 716 -412 946 -113 112 -164 145 -182 117z"
         id="path3" />
      <path
         d="M4951 5230 c-18 -4 -40 -15 -49 -24 -20 -20 -28 -123 -12 -170 16 -51 50 -58 243 -54 177 3 179 4 191 77 7 48 -9 141 -30 161 -11 12 -45 15 -162 17 -81 1 -162 -2 -181 -7z"
         id="path5" />
      <path
         d="M4245 5033 c-246 -19 -316 -26 -413 -39 -204 -27 -316 -57 -455 -123 -270 -127 -405 -255 -524 -493 -90 -182 -112 -282 -119 -553 -4 -175 2 -233 22 -213 4 4 7 54 8 110 2 139 38 320 86 441 58 145 106 222 228 368 33 40 210 167 278 199 215 102 480 154 914 180 85 5 165 12 177 16 28 8 38 36 23 64 -23 43 -84 55 -225 43z"
         id="path6" />
      <path
         d="M5780 5028 c-21 -8 -40 -24 -48 -42 -13 -25 -12 -30 4 -46 16 -16 49 -20 209 -30 182 -11 413 -33 465 -44 14 -3 78 -17 144 -31 179 -39 265 -75 411 -169 103 -67 189 -155 274 -281 110 -161 151 -258 176 -413 25 -154 36 -202 44 -202 17 0 21 65 11 179 -25 277 -102 466 -271 660 -95 108 -138 144 -255 210 -216 121 -366 160 -746 196 -248 23 -378 27 -418 13z"
         id="path7" />
      <path
         d="M3039 4901 c-52 -16 -76 -35 -174 -135 -82 -84 -111 -106 -160 -126 -87 -34 -159 -83 -184 -123 -29 -48 -51 -154 -51 -253 0 -74 -3 -87 -39 -158 -60 -118 -63 -142 -59 -544 4 -341 5 -360 26 -413 32 -80 97 -140 215 -200 109 -54 115 -55 143 -35 19 14 19 15 0 50 -11 20 -50 58 -96 90 -43 31 -96 77 -119 101 l-41 45 0 383 0 383 34 71 c40 83 56 157 56 257 1 123 42 183 165 241 69 33 95 55 149 128 65 89 112 123 220 161 66 24 87 45 67 70 -15 17 -104 21 -152 7z"
         id="path8" />
      <path
         d="M7034 4876 c-11 -30 3 -42 94 -80 93 -38 98 -42 227 -184 34 -36 71 -64 121 -88 81 -39 131 -88 138 -136 3 -18 7 -82 9 -141 4 -106 5 -110 51 -200 l47 -92 -3 -371 -3 -370 -25 -37 c-14 -21 -66 -67 -117 -102 -115 -82 -147 -118 -132 -147 15 -28 71 -20 152 22 111 57 177 110 211 170 l31 55 3 379 c2 233 -1 398 -7 427 -6 27 -28 88 -50 136 -34 77 -39 100 -44 188 -11 188 -49 248 -205 324 -103 50 -117 60 -185 141 -70 84 -124 112 -229 118 -65 4 -79 2 -84 -12z"
         id="path9" />
      <path
         id="path10"
         d="m 4639,4851 c -24,-19 -24,-21 -27,-259 -3,-210 -1,-242 13,-256 23,-23 40,-20 77,13 l 33,29 v 232 c 0,218 -1,232 -19,246 -27,19 -49,18 -77,-5 z m 55,719 c -11,-4 -34,-24 -52,-44 -35,-41 -43,-97 -18,-131 11,-16 11,-23 -6,-51 -17,-30 -19,-50 -16,-208 3,-195 8,-209 68,-209 59,0 65,15 68,202 3,136 0,176 -12,206 -15,35 -15,40 1,58 42,45 55,47 381,47 h 308 l 42,-31 c 42,-31 42,-32 27,-56 -14,-20 -16,-54 -13,-219 l 3,-196 28,-24 28,-24 -28,-24 -28,-24 -3,-224 c -2,-145 1,-236 8,-261 13,-43 44,-63 84,-53 34,8 38,43 34,314 l -3,224 -28,24 -28,24 28,24 28,24 3,182 c 3,159 1,186 -15,218 -16,32 -16,42 -6,75 23,70 -10,130 -86,156 -40,13 -764,15 -797,1 z"
         transform="translate(0,-2.5e-5)" />
      <path
         d="M4957 4847 c-131 -30 -183 -122 -173 -304 5 -93 26 -144 80 -191 44 -39 78 -45 241 -46 117 -1 135 1 183 23 95 43 122 96 122 242 0 148 -38 230 -122 264 -57 23 -252 30 -331 12z m268 -152 c23 -22 25 -32 25 -108 0 -54 -5 -90 -14 -102 -21 -30 -190 -47 -239 -24 -36 16 -47 50 -47 139 0 114 8 120 145 120 99 0 107 -2 130 -25z"
         id="path11" />
      <path
         d="M3956 4638 c-18 -14 -17 -15 10 -25 157 -59 278 -110 323 -135 55 -31 101 -32 101 -3 0 31 -65 87 -149 127 -78 38 -95 43 -176 46 -67 3 -95 0 -109 -10z"
         id="path12" />
      <path
         d="M6070 4643 c-74 -11 -238 -89 -269 -127 -20 -23 -10 -60 17 -64 13 -2 67 18 125 47 56 28 134 59 174 70 72 18 123 43 123 60 0 18 -95 26 -170 14z"
         id="path13" />
      <path
         d="m 3711,4573 c -29,-6 -205,-69 -234,-85 -34,-17 -138,-99 -177,-138 -43,-44 -124,-180 -149,-251 -11,-30 -26,-70 -35,-89 l -17,-35 6,40 c 11,77 47,165 101,251 30,48 53,93 50,101 -10,25 -38,13 -91,-40 -98,-99 -152,-244 -169,-452 -12,-147 72,-411 116,-367 12,12 11,16 -18,175 -10,50 4,28 41,-66 87,-226 222,-378 410,-460 144,-64 338,-76 509,-32 109,27 169,58 271,140 124,99 206,223 247,371 17,63 21,106 21,214 -1,125 -3,141 -32,219 -36,98 -65,152 -135,244 -91,122 -265,229 -411,253 -76,13 -252,17 -304,7 z"
         id="path14"
         transform="translate(0,-2.5e-5)"
         style="display:inline"
         inkscape:label="eye1-l"
         sodipodi:insensitive="true" />
      <path
         d="m 6177,4560 c -120,-25 -221,-77 -315,-162 -158,-145 -224,-265 -252,-465 -17,-125 17,-307 82,-438 94,-186 307,-349 506,-386 32,-6 113,-9 182,-6 102,3 140,9 210,33 173,58 364,226 453,400 18,35 52,165 62,239 6,40 9,46 17,31 11,-20 1,-121 -23,-228 -27,-120 39,-90 81,37 74,223 32,493 -104,672 -50,66 -93,103 -120,103 -25,0 -19,-18 34,-115 95,-171 139,-288 140,-372 0,-30 -20,-50 -20,-20 -2,53 -35,178 -68,255 -34,76 -55,108 -123,183 -100,108 -189,170 -304,209 -154,52 -287,61 -438,30 z"
         id="path15"
         transform="translate(0,-2.5e-5)"
         style="display:inline;fill:#000000"
         sodipodi:insensitive="true"
         inkscape:label="eye1-r" />
      <path
         style="opacity:1;fill:#008000;fill-opacity:1;stroke:#000000;stroke-width:120;stroke-linecap:square;stroke-linejoin:miter;stroke-miterlimit:12.2;stroke-dasharray:none;stroke-opacity:1;paint-order:stroke fill markers"
         d="m 4405.2649,3831.7765 c 0,-147.5626 -58.619,-289.0814 -162.9615,-393.424 -104.3426,-104.3425 -245.8614,-162.9615 -393.424,-162.9615 -147.5626,0 -289.0814,58.619 -393.424,162.9615 -104.3425,104.3426 -162.9615,245.8614 -162.9615,393.424 0,147.5626 58.619,289.0814 162.9616,393.4239 104.3425,104.3425 245.8613,162.9615 393.4239,162.9615 147.5626,0 289.0814,-58.619 393.4239,-162.9615 104.3426,-104.3425 162.9616,-245.8613 162.9616,-393.4239 z"
         transform="translate(0,-2.5e-5)"
         id="path202"
         inkscape:label="eye2-l"
         sodipodi:insensitive="true" />
      <path
         style="display:inline;opacity:1;mix-blend-mode:normal;fill:none;fill-opacity:1;stroke:#009700;stroke-width:90;stroke-linecap:square;stroke-linejoin:miter;stroke-miterlimit:12.2;stroke-dasharray:none;stroke-opacity:1;paint-order:stroke fill markers;filter:url(#filter224)"
         d="m 4405.2649,3831.7765 c 0,-147.5626 -58.619,-289.0814 -162.9615,-393.424 -104.3426,-104.3425 -245.8614,-162.9615 -393.424,-162.9615 -147.5626,0 -289.0814,58.619 -393.424,162.9615 -104.3425,104.3426 -162.9615,245.8614 -162.9615,393.424 0,147.5626 58.619,289.0814 162.9616,393.4239 104.3425,104.3425 245.8613,162.9615 393.4239,162.9615 147.5626,0 289.0814,-58.619 393.4239,-162.9615 104.3426,-104.3425 162.9616,-245.8613 162.9616,-393.4239 z"
         id="path223"
         inkscape:label="eye2-l-blur"
         transform="translate(0,-2.5e-5)"
         sodipodi:insensitive="true" />
      <path
         style="display:inline;opacity:1;fill:#008000;fill-opacity:1;stroke:#000000;stroke-width:120;stroke-linecap:square;stroke-linejoin:miter;stroke-miterlimit:12.2;stroke-dasharray:none;stroke-opacity:1;paint-order:stroke fill markers"
         d="m 6909.5722,3837.9538 c 0,-147.5626 -58.619,-289.0814 -162.9616,-393.4239 -104.3425,-104.3425 -245.8613,-162.9615 -393.4239,-162.9615 -147.5626,0 -289.0814,58.619 -393.4239,162.9615 -104.3426,104.3425 -162.9616,245.8613 -162.9616,393.4239 0,147.5626 58.619,289.0814 162.9615,393.424 104.3426,104.3425 245.8614,162.9615 393.424,162.9615 147.5626,0 289.0814,-58.619 393.424,-162.9615 104.3425,-104.3426 162.9615,-245.8614 162.9615,-393.424 z"
         transform="translate(0,-2.5e-5)"
         id="path196"
         inkscape:label="eye2-r"
         sodipodi:insensitive="true" />
      <path
         style="opacity:1;fill:none;fill-opacity:1;stroke:#009700;stroke-width:90;stroke-linecap:square;stroke-linejoin:miter;stroke-miterlimit:12.2;stroke-dasharray:none;stroke-opacity:1;paint-order:stroke fill markers;filter:url(#filter222)"
         d="m 6909.5722,3837.9538 c 0,-147.5626 -58.619,-289.0814 -162.9616,-393.4239 -104.3425,-104.3425 -245.8613,-162.9615 -393.4239,-162.9615 -147.5626,0 -289.0814,58.619 -393.4239,162.9615 -104.3426,104.3425 -162.9616,245.8613 -162.9616,393.4239 0,147.5626 58.619,289.0814 162.9615,393.424 104.3426,104.3425 245.8614,162.9615 393.424,162.9615 147.5626,0 289.0814,-58.619 393.424,-162.9615 104.3425,-104.3426 162.9615,-245.8614 162.9615,-393.424 z"
         transform="translate(0,-2.5e-5)"
         id="path204"
         inkscape:label="eye2-r-blur"
         sodipodi:insensitive="true" />
      <path
         id="path98-2"
         d="m 6484.2008,4158.7306 c 65,-29 128,-91 155,-153 20,-46 20,-51 5,-74 -28,-43 -61,-32 -134,45 -74,78 -117,96 -209,89 -64,-6 -126,-46 -155,-100 -19,-37 -32,-43 -82,-38 -31,3 -38,15 -31,52 13,72 131,174 230,199 54,14 167,4 221,-20 z m 246,-108 c 34,-70 49,-143 47,-228 l -1,-80 -8,100 c -10,142 -37,213 -113,295 l -41,45 48,-45 c 26,-24 57,-64 68,-87 z m -712,65 c -39,-52 -55,-69 -44,-48 13,23 66,90 72,90 2,0 -10,-19 -28,-42 z m -70,-119 c -11,-27 -23,-73 -28,-102 -6,-36 -9,-43 -10,-21 -1,43 39,174 53,174 2,0 -5,-23 -15,-51 z m -42,-191 c -3,-8 -6,-5 -6,6 -1,11 2,17 5,13 3,-3 4,-12 1,-19 z m 10,-70 c -3,-7 -5,-2 -5,12 0,14 2,19 5,13 2,-7 2,-19 0,-25 z m 848,-30 c -11,-50 -51,-124 -93,-170 -37,-41 -145,-118 -166,-118 -6,0 9,12 34,26 107,61 175,140 207,241 19,59 28,71 18,21 z m -770,-139 c 15,-21 43,-51 62,-66 20,-15 45,-36 57,-46 21,-18 21,-18 0,-8 -51,25 -124,105 -159,173 -19,39 -35,78 -35,87 0,9 11,-10 24,-42 14,-32 37,-76 51,-98 z m 170,-139 c 3,-6 -1,-7 -9,-4 -18,7 -21,14 -7,14 6,0 13,-4 16,-10 z m 55,-20 c 18,-12 2,-12 -25,0 -13,6 -15,9 -5,9 8,0 22,-4 30,-9 z m 260,0 c -8,-5 -22,-9 -30,-9 -10,0 -8,3 5,9 27,12 43,12 25,0 z m -197,-17 c -7,-2 -19,-2 -25,0 -7,3 -2,5 12,5 14,0 19,-2 13,-5 z m 130,0 c -13,-2 -33,-2 -45,0 -13,2 -3,4 22,4 25,0 35,-2 23,-4 z"
         style="fill:#41af18;fill-opacity:1"
         transform="translate(0,-2.5e-5)"
         sodipodi:insensitive="true"
         inkscape:label="iris-r" />
      <path
         id="path110"
         d="m 3590,4196 c 0,-2 -8,-10 -17,-17 -16,-13 -17,-12 -4,4 13,16 21,21 21,13 z m 407,-32 c 97,-49 188,-183 150,-221 -7,-8 -29,-16 -49,-19 -33,-6 -36,-4 -61,39 -34,58 -77,94 -130,108 -88,24 -185,-18 -236,-101 -27,-44 -35,-50 -64,-50 -74,0 -85,61 -27,145 45,66 104,103 205,129 52,13 155,-2 212,-30 z m 232,-104 c 17,-32 31,-62 31,-66 0,-5 -16,20 -35,56 -19,35 -50,80 -67,100 l -33,35 37,-34 c 20,-18 50,-59 67,-91 z m -729,40 c -12,-16 -24,-30 -26,-30 -3,0 4,14 16,30 12,17 24,30 26,30 3,0 -4,-13 -16,-30 z m -49,-87 c -12,-20 -14,-14 -5,12 4,9 9,14 11,11 3,-2 0,-13 -6,-23 z m 833,-178 c -1,-129 -30,-208 -111,-296 -53,-57 -172,-129 -212,-129 -9,0 9,11 40,24 81,33 123,61 169,113 94,108 129,257 95,413 l -6,25 13,-25 c 7,-15 12,-66 12,-125 z m -861,48 c -12,-175 54,-314 197,-416 l 25,-18 -24,12 c -39,18 -120,99 -148,147 -53,90 -76,223 -57,321 10,50 12,36 7,-46 z m 284,-459 c -5,-5 -57,13 -57,20 0,3 14,0 31,-6 16,-6 28,-12 26,-14 z m 40,-10 c -3,-3 -12,-4 -19,-1 -8,3 -5,6 6,6 11,1 17,-2 13,-5 z m 56,-11 c -7,-2 -21,-2 -30,0 -10,3 -4,5 12,5 17,0 24,-2 18,-5 z m 130,0 c -7,-2 -21,-2 -30,0 -10,3 -4,5 12,5 17,0 24,-2 18,-5 z"
         style="fill:#41af18;fill-opacity:1"
         transform="translate(0,-2.5e-5)"
         inkscape:label="iris-l"
         sodipodi:insensitive="true" />
      <path
         d="M4843 4200 c-35 -14 -46 -44 -25 -70 17 -21 23 -21 276 -21 228 0 261 2 277 17 23 21 24 47 2 65 -12 11 -71 14 -262 16 -135 1 -256 -2 -268 -7z"
         id="path16" />
      <path
         d="M4973 3866 c-58 -19 -129 -66 -179 -118 -49 -51 -120 -167 -129 -211 -4 -18 -18 -65 -32 -106 -19 -55 -22 -76 -13 -85 13 -13 28 3 100 105 66 94 166 195 230 232 52 30 61 32 155 32 86 0 107 -3 147 -24 64 -33 161 -132 209 -212 21 -37 53 -79 70 -93 64 -54 65 -1 4 148 -62 151 -86 187 -157 242 -102 76 -156 97 -267 101 -63 2 -110 -2 -138 -11z"
         id="path17" />
      <path
         d="M4981 3589 c-79 -39 -128 -100 -191 -234 -53 -113 -142 -255 -197 -316 -57 -63 -152 -132 -207 -150 -49 -17 -51 -17 -87 4 l-37 21 -74 -32 c-94 -41 -166 -54 -305 -56 -83 -1 -115 3 -125 13 -11 11 -11 14 1 18 20 8 51 41 51 56 -1 31 -20 40 -109 48 -112 10 -246 54 -337 109 -67 41 -102 46 -90 13 5 -11 -1 -23 -15 -34 -33 -25 -18 -62 52 -133 46 -47 59 -66 54 -81 -19 -61 -18 -64 31 -114 54 -53 126 -86 231 -104 65 -11 64 -12 268 63 45 17 75 21 120 18 87 -7 212 -59 270 -113 49 -45 54 -68 16 -73 -32 -5 -34 -20 -16 -108 12 -59 16 -122 13 -247 -2 -160 -1 -168 19 -189 l22 -21 40 26 41 27 14 -29 c9 -16 23 -31 31 -35 34 -13 93 -6 118 14 32 25 32 25 46 -9 28 -66 147 -69 182 -5 14 27 29 32 29 10 0 -27 44 -66 75 -67 78 -3 150 11 164 31 16 24 30 25 46 3 8 -10 34 -19 71 -23 32 -4 73 -10 91 -14 27 -6 37 -3 55 16 13 13 28 33 34 44 11 18 13 17 39 -14 25 -30 32 -33 64 -27 46 8 78 29 86 55 8 26 21 25 56 -4 15 -13 34 -26 41 -28 9 -3 5 -14 -14 -36 -33 -39 -47 -102 -51 -219 -2 -88 -1 -93 26 -121 l27 -29 -20 -18 c-28 -25 -61 -144 -62 -221 0 -43 28 -94 52 -94 22 0 65 54 94 118 21 47 36 54 36 19 0 -13 6 -31 13 -41 35 -48 88 23 108 141 10 64 10 75 -5 98 -31 47 -69 25 -95 -55 l-18 -55 -7 36 c-3 20 -15 44 -26 54 -26 24 -25 29 9 73 16 20 35 54 42 74 13 38 29 42 29 7 0 -10 9 -28 20 -39 28 -28 54 -12 83 48 12 26 22 48 23 50 1 2 13 -8 27 -22 15 -15 32 -23 41 -20 13 5 34 50 52 113 4 11 8 9 20 -7 19 -28 39 -28 58 0 25 35 16 162 -13 191 -17 17 -39 -11 -47 -59 -8 -53 -18 -56 -34 -9 -24 72 -74 62 -86 -16 -9 -54 -18 -56 -39 -9 -19 43 -55 61 -79 41 -8 -6 -17 -36 -21 -66 -3 -30 -10 -55 -15 -55 -4 0 -13 15 -20 33 -7 17 -25 45 -39 60 l-26 28 22 17 c12 9 28 32 34 50 13 39 20 39 55 7 34 -32 59 -32 80 1 15 22 16 44 11 162 -4 90 -1 172 7 237 15 110 13 121 -15 130 -10 4 -19 13 -19 21 0 28 80 101 143 130 55 26 73 29 157 28 83 0 109 -5 204 -38 189 -65 319 -52 417 43 51 49 58 71 38 115 -11 23 -7 31 50 98 61 72 76 113 46 124 -8 4 -15 17 -15 29 0 13 -4 26 -9 30 -6 3 -59 -20 -118 -50 -91 -47 -128 -60 -237 -83 -85 -17 -130 -31 -134 -41 -3 -9 8 -27 31 -46 20 -18 34 -35 30 -38 -3 -4 -68 -7 -143 -7 -148 0 -229 15 -356 66 -65 26 -69 26 -97 11 -16 -10 -41 -17 -56 -17 -59 0 -209 128 -287 245 -23 33 -72 120 -110 194 -80 155 -133 220 -215 262 -82 41 -153 40 -238 -2z m178 -334 c16 -14 37 -47 46 -73 42 -121 63 -165 128 -280 l70 -123 5 -98 c4 -87 2 -105 -17 -144 -12 -25 -30 -48 -39 -52 -112 -46 -168 -8 -207 142 -26 100 -53 99 -80 -4 -29 -110 -56 -149 -111 -159 -90 -17 -145 42 -152 165 -6 106 13 171 101 347 41 82 85 177 97 212 13 35 32 70 44 77 32 23 80 18 115 -10z m377 -651 c-4 -18 -11 -34 -16 -34 -12 0 -14 103 -3 114 13 12 25 -43 19 -80z"
         id="path18" />
      <path
         d="M2905 3510 c-14 -22 -17 -242 -6 -351 15 -141 44 -250 82 -310 16 -25 58 -69 93 -98 36 -28 102 -92 147 -142 45 -50 99 -99 120 -110 61 -31 159 -23 159 13 0 5 -20 17 -44 28 -26 11 -65 41 -93 72 -26 29 -109 114 -184 189 -76 75 -146 154 -157 175 -41 80 -72 225 -72 332 0 137 -23 238 -45 202z"
         id="path19" />
      <path
         d="M7285 3473 c-4 -10 -11 -49 -15 -88 -18 -155 -41 -312 -51 -345 -22 -69 -59 -116 -164 -209 -58 -52 -132 -128 -163 -169 -42 -56 -74 -85 -122 -114 -36 -21 -67 -44 -69 -50 -12 -36 99 -30 166 9 23 13 66 52 95 86 69 81 62 74 143 139 131 104 152 137 192 312 21 96 24 128 21 267 -2 99 -7 162 -14 169 -8 8 -13 7 -19 -7z"
         id="path20" />
      <path
         d="M5793 3214 c-4 -10 8 -30 33 -55 49 -51 89 -75 167 -104 34 -12 76 -28 93 -35 17 -8 39 -10 49 -7 26 11 3 33 -48 45 -44 12 -204 107 -248 148 -29 28 -37 30 -46 8z"
         id="path21" />
      <path
         d="M4270 3140 c-58 -39 -113 -73 -122 -76 -10 -3 -18 -12 -18 -21 0 -25 85 -8 141 28 49 31 129 111 129 129 0 21 -28 8 -130 -60z"
         id="path22" />
      <path
         d="M7332 2498 c-5 -7 -17 -53 -26 -103 -45 -251 -113 -417 -217 -530 -145 -157 -282 -268 -492 -396 -109 -66 -307 -211 -346 -253 -33 -35 -22 -61 22 -52 32 6 78 32 252 138 50 30 133 78 185 108 141 80 330 208 373 253 153 162 243 361 282 624 16 110 18 164 9 201 -7 24 -26 29 -42 10z"
         id="path23" />
      <path
         d="M4143 2468 c3 -13 15 -48 26 -78 13 -34 21 -82 21 -125 2 -108 12 -159 33 -163 12 -3 22 8 33 35 31 74 1 259 -52 323 -31 37 -69 42 -61 8z"
         id="path24" />
      <path
         d="M4006 2463 c-4 -9 9 -48 30 -92 21 -42 45 -101 54 -131 13 -41 23 -55 36 -55 31 0 25 114 -9 187 -40 89 -95 134 -111 91z"
         id="path25" />
      <path
         d="M5996 2436 c-61 -64 -83 -184 -50 -279 12 -34 21 -47 35 -47 26 0 29 10 32 125 2 64 10 121 22 158 14 43 16 60 7 69 -9 9 -20 2 -46 -26z"
         id="path26" />
      <path
         d="M6122 2415 c-30 -34 -46 -74 -58 -147 -12 -68 15 -117 36 -65 5 12 27 64 49 115 23 50 41 101 41 112 0 32 -34 24 -68 -15z"
         id="path27" />
      <path
         d="M6551 2203 c-8 -17 -49 -174 -86 -338 -23 -100 -33 -364 -14 -376 20 -13 22 -12 72 26 32 25 56 55 81 106 43 86 46 127 11 165 -25 27 -25 28 -25 215 0 103 -3 194 -6 203 -8 21 -21 20 -33 -1z"
         id="path28" />
      <path
         d="M3618 2103 c-1 -32 0 -112 1 -178 3 -112 2 -122 -20 -149 l-23 -29 17 -123 c21 -152 46 -233 105 -349 41 -79 65 -109 199 -245 83 -85 175 -186 204 -225 73 -98 101 -126 213 -217 159 -129 190 -144 360 -173 130 -22 173 -25 409 -25 315 0 439 14 566 64 47 19 97 37 111 41 49 14 97 51 214 165 126 122 206 220 206 251 0 28 -22 23 -81 -17 -108 -73 -173 -89 -242 -60 -66 27 -125 123 -137 223 -13 102 -39 116 -107 58 -45 -38 -63 -44 -63 -20 0 9 -12 28 -26 42 l-26 26 26 64 c15 36 29 91 33 122 5 51 3 61 -16 80 -35 35 -129 20 -158 -27 -9 -15 -18 -29 -20 -31 -2 -3 -16 11 -32 30 -27 31 -33 34 -83 33 -66 -2 -112 -24 -134 -66 l-16 -32 -13 31 c-7 16 -25 40 -40 51 -30 24 -30 24 2 41 13 6 30 26 39 44 9 18 18 34 20 35 1 2 16 -11 32 -29 25 -28 37 -33 88 -37 54 -4 63 -1 91 22 18 15 35 36 38 47 7 20 9 19 35 -12 23 -28 34 -34 68 -34 29 0 48 7 65 24 43 39 60 159 36 246 -13 45 -68 105 -97 105 -26 0 -58 -41 -74 -91 -6 -22 -15 -39 -19 -39 -4 0 -17 16 -30 36 -71 116 -146 111 -205 -14 l-27 -57 -22 51 c-45 101 -124 133 -183 73 -17 -17 -36 -44 -42 -60 -7 -16 -16 -29 -20 -29 -5 0 -20 25 -34 55 -41 89 -101 87 -154 -5 -32 -56 -36 -55 -47 5 -15 82 -49 115 -96 91 -59 -30 -91 -140 -71 -248 12 -67 39 -102 88 -114 29 -7 71 17 83 48 7 19 10 16 34 -25 31 -53 85 -90 124 -85 19 2 35 15 52 41 l25 38 24 -31 c13 -17 40 -39 60 -49 l37 -19 -37 -15 c-50 -21 -62 -47 -54 -120 7 -67 32 -129 71 -172 32 -36 15 -46 -34 -20 -28 14 -36 14 -84 0 -48 -14 -57 -14 -90 0 -52 22 -76 19 -89 -10 -15 -33 -28 -31 -55 7 -24 34 -22 48 7 48 14 0 23 11 30 38 15 50 -10 224 -37 254 -40 45 -102 42 -124 -6 -13 -27 5 -94 54 -211 l26 -59 -28 -12 c-15 -7 -31 -20 -35 -30 -6 -15 -14 -9 -56 36 -47 51 -50 52 -72 38 -13 -8 -24 -25 -26 -37 -5 -31 -23 -26 -55 14 -31 39 -51 43 -79 18 -16 -14 -22 -15 -36 -5 -30 21 -43 25 -53 15 -8 -8 -17 -83 -19 -165 -1 -43 -170 133 -238 248 -53 88 -78 197 -87 369 -5 103 -15 162 -46 283 -42 165 -61 212 -84 212 -11 0 -15 -14 -17 -57z m1773 -931 l19 -53 -42 6 c-32 5 -55 1 -91 -15 -57 -26 -83 -22 -131 20 -18 17 -43 30 -55 30 -24 0 -26 15 -9 74 17 62 23 62 41 -4 19 -66 42 -96 83 -106 47 -12 93 40 136 156 l13 35 8 -45 c5 -25 18 -69 28 -98z"
         id="path29" />
      <path
         d="M4090 1931 c-16 -31 -13 -156 5 -171 19 -15 45 3 45 31 0 42 18 25 22 -22 8 -81 58 -118 95 -70 10 14 13 12 22 -14 22 -63 36 -80 67 -83 46 -5 55 27 52 177 -3 122 -3 124 -30 144 -27 20 -28 20 -49 1 -12 -10 -28 -32 -35 -49 -11 -27 -13 -28 -19 -10 -13 42 -31 70 -45 70 -8 0 -26 -20 -39 -45 l-25 -45 -8 43 c-4 23 -10 47 -13 52 -10 16 -34 11 -45 -9z"
         id="path30" />
      <path
         d="M3406 1844 c-10 -26 -7 -254 4 -324 21 -129 49 -198 107 -260 59 -64 129 -106 149 -89 9 7 -5 43 -55 142 -78 157 -115 263 -141 410 -17 100 -31 137 -50 137 -4 0 -11 -7 -14 -16z"
         id="path31" />
      <path
         d="M6747 1814 c-4 -4 -7 -27 -7 -51 0 -24 -5 -52 -12 -62 -14 -23 -3 -60 14 -43 11 11 29 80 31 126 2 28 -12 44 -26 30z"
         id="path32" />
      <path
         d="M6082 1627 c-16 -19 -24 -80 -12 -97 9 -13 12 -12 25 4 16 22 20 91 6 100 -5 3 -13 0 -19 -7z"
         id="path33" />
      <path
         d="M4203 1603 c-48 -19 -2 -269 53 -290 9 -3 23 2 32 11 15 15 15 24 -1 117 -26 149 -42 180 -84 162z"
         id="path34" />
      <path
         d="M4093 1585 c-7 -21 3 -85 17 -99 15 -15 30 11 30 55 0 49 -33 80 -47 44z"
         id="path35" />
      <path
         d="M5944 1565 c-21 -33 -27 -215 -8 -222 18 -6 52 56 69 125 14 52 14 66 3 89 -18 37 -43 40 -64 8z"
         id="path36" />
      <path
         d="M4325 1540 c-27 -30 -23 -139 8 -199 28 -58 70 -90 92 -71 18 15 21 137 4 205 -18 70 -70 102 -104 65z"
         id="path37" />
      <path
         d="M4707 1433 c-24 -10 -39 -24 -43 -40 -21 -82 62 -271 114 -261 35 7 55 55 60 142 6 107 -1 132 -41 156 -38 23 -41 24 -90 3z"
         id="path38" />
      <path
         d="M5980 1213 c-77 -38 -172 -131 -172 -168 0 -61 65 -68 169 -19 84 40 153 133 125 167 -6 6 -24 20 -40 29 -28 17 -31 17 -82 -9z"
         id="path39" />
   </g>
</svg>